<?xml version="1.0" encoding="UTF-8"?>
<svg xmlns="http://www.w3.org/2000/svg" xmlns:xlink="http://www.w3.org/1999/xlink" width="48px" height="48px" viewBox="0 0 48 48" version="1.1">
<g id="surface1">
<path style=" stroke:none;fill-rule:nonzero;fill:rgb(16.862745%,49.803922%,100%);fill-opacity:1;" d="M 13.109375 18.195312 L -0.183594 18.195312 C -0.59375 18.195312 -0.921875 18.503906 -0.921875 18.886719 L -0.921875 23.050781 C -0.921875 23.4375 -0.59375 23.746094 -0.183594 23.746094 L 0.554688 23.746094 L 0.554688 39.710938 C 0.554688 40.09375 0.882812 40.402344 1.292969 40.402344 L 11.632812 40.402344 C 12.039062 40.402344 12.371094 40.09375 12.371094 39.710938 L 12.371094 23.746094 L 13.109375 23.746094 C 13.515625 23.746094 13.847656 23.4375 13.847656 23.050781 L 13.847656 18.886719 C 13.847656 18.503906 13.515625 18.195312 13.109375 18.195312 Z M 4.984375 31.378906 L 4.984375 29.992188 L 9.414062 29.992188 L 9.414062 28.605469 L 4.984375 28.605469 L 4.984375 27.214844 L 10.890625 27.214844 L 10.890625 36.238281 L 4.984375 36.238281 L 4.984375 32.769531 L 6.460938 32.769531 L 6.460938 31.378906 Z M 10.890625 25.828125 L 4.246094 25.828125 C 3.839844 25.828125 3.507812 26.136719 3.507812 26.523438 L 3.507812 36.933594 C 3.507812 37.316406 3.839844 37.625 4.246094 37.625 L 10.890625 37.625 L 10.890625 39.015625 L 2.03125 39.015625 L 2.03125 23.746094 L 10.890625 23.746094 Z M 12.371094 22.359375 L 0.554688 22.359375 L 0.554688 19.582031 L 12.371094 19.582031 Z M 12.371094 22.359375 "/>
<path style=" stroke:none;fill-rule:nonzero;fill:rgb(16.862745%,49.803922%,100%);fill-opacity:1;" d="M 22.894531 18.324219 L 22.894531 13.25 C 22.894531 12.855469 22.5625 12.535156 22.152344 12.535156 L 21.414062 12.535156 L 21.414062 8.960938 L 22.894531 8.960938 L 22.894531 7.535156 L 14.769531 7.535156 L 14.769531 8.960938 L 19.9375 8.960938 L 19.9375 12.535156 L 19.199219 12.535156 C 18.792969 12.535156 18.460938 12.855469 18.460938 13.25 L 18.460938 18.324219 C 16.777344 18.65625 15.507812 20.097656 15.507812 21.824219 L 15.507812 39.6875 C 15.507812 40.082031 15.839844 40.402344 16.246094 40.402344 L 25.109375 40.402344 C 25.515625 40.402344 25.847656 40.082031 25.847656 39.6875 L 25.847656 21.824219 C 25.847656 20.097656 24.574219 18.65625 22.894531 18.324219 Z M 19.9375 13.964844 L 21.414062 13.964844 L 21.414062 18.25 L 19.9375 18.25 Z M 19.199219 19.679688 L 22.152344 19.679688 C 23.375 19.679688 24.371094 20.644531 24.371094 21.824219 L 24.371094 22.539062 L 16.984375 22.539062 L 16.984375 21.824219 C 16.984375 20.644531 17.980469 19.679688 19.199219 19.679688 Z M 24.371094 36.117188 L 16.984375 36.117188 L 16.984375 34.6875 L 19.9375 34.6875 L 19.9375 33.257812 L 16.984375 33.257812 L 16.984375 23.96875 L 24.371094 23.96875 Z M 16.984375 38.972656 L 16.984375 37.542969 L 24.371094 37.542969 L 24.371094 38.972656 Z M 16.984375 38.972656 "/>
<path style=" stroke:none;fill-rule:nonzero;fill:rgb(16.862745%,49.803922%,100%);fill-opacity:1;" d="M 41.769531 17.304688 L 29.308594 17.304688 C 28.925781 17.304688 28.617188 17.617188 28.617188 18.003906 L 28.617188 39.703125 C 28.617188 40.089844 28.925781 40.402344 29.308594 40.402344 L 41.769531 40.402344 C 42.152344 40.402344 42.460938 40.089844 42.460938 39.703125 L 42.460938 18.003906 C 42.460938 17.617188 42.152344 17.304688 41.769531 17.304688 Z M 41.078125 39.003906 L 30 39.003906 L 30 18.707031 L 41.078125 18.707031 Z M 41.078125 39.003906 "/>
<path style=" stroke:none;fill-rule:nonzero;fill:rgb(16.862745%,49.803922%,100%);fill-opacity:1;" d="M 10.15625 31.519531 L 8.308594 31.519531 L 8.308594 32.40625 L 10.15625 32.40625 Z M 10.15625 31.519531 "/>
<path style=" stroke:none;fill-rule:nonzero;fill:rgb(16.862745%,49.803922%,100%);fill-opacity:1;" d="M 23.078125 33.296875 L 21.230469 33.296875 L 21.230469 35.074219 L 23.078125 35.074219 Z M 23.078125 33.296875 "/>
<path style=" stroke:none;fill-rule:nonzero;fill:rgb(16.862745%,49.803922%,100%);fill-opacity:1;" d="M 20.769531 31.519531 C 22.550781 31.519531 24 30.125 24 28.410156 C 24 26.695312 22.550781 25.300781 20.769531 25.300781 C 18.988281 25.300781 17.539062 26.695312 17.539062 28.410156 C 17.539062 30.125 18.988281 31.519531 20.769531 31.519531 Z M 20.769531 26.855469 C 21.660156 26.855469 22.382812 27.550781 22.382812 28.410156 C 22.382812 29.265625 21.660156 29.964844 20.769531 29.964844 C 19.878906 29.964844 19.152344 29.265625 19.152344 28.410156 C 19.152344 27.550781 19.878906 26.855469 20.769531 26.855469 Z M 20.769531 26.855469 "/>
<path style=" stroke:none;fill-rule:nonzero;fill:rgb(16.862745%,49.803922%,100%);fill-opacity:1;" d="M 33.808594 24.414062 L 37.269531 24.414062 C 38.605469 24.414062 39.691406 23.417969 39.691406 22.191406 C 39.691406 20.964844 38.605469 19.96875 37.269531 19.96875 L 33.808594 19.96875 C 32.472656 19.96875 31.386719 20.964844 31.386719 22.191406 C 31.386719 23.417969 32.472656 24.414062 33.808594 24.414062 Z M 38.308594 22.191406 C 38.308594 22.714844 37.84375 23.144531 37.269531 23.144531 L 36.230469 23.144531 L 36.230469 21.238281 L 37.269531 21.238281 C 37.84375 21.238281 38.308594 21.667969 38.308594 22.191406 Z M 33.808594 21.238281 L 34.847656 21.238281 L 34.847656 23.144531 L 33.808594 23.144531 C 33.234375 23.144531 32.769531 22.714844 32.769531 22.191406 C 32.769531 21.667969 33.234375 21.238281 33.808594 21.238281 Z M 33.808594 21.238281 "/>
<path style=" stroke:none;fill-rule:nonzero;fill:rgb(16.862745%,49.803922%,100%);fill-opacity:1;" d="M 33.808594 31.519531 L 37.269531 31.519531 C 38.605469 31.519531 39.691406 30.324219 39.691406 28.855469 C 39.691406 27.382812 38.605469 26.1875 37.269531 26.1875 L 33.808594 26.1875 C 32.472656 26.1875 31.386719 27.382812 31.386719 28.855469 C 31.386719 30.324219 32.472656 31.519531 33.808594 31.519531 Z M 38.308594 28.855469 C 38.308594 29.484375 37.84375 29.996094 37.269531 29.996094 L 36.230469 29.996094 L 36.230469 27.710938 L 37.269531 27.710938 C 37.84375 27.710938 38.308594 28.222656 38.308594 28.855469 Z M 33.808594 27.710938 L 34.847656 27.710938 L 34.847656 29.996094 L 33.808594 29.996094 C 33.234375 29.996094 32.769531 29.484375 32.769531 28.855469 C 32.769531 28.222656 33.234375 27.710938 33.808594 27.710938 Z M 33.808594 27.710938 "/>
<path style=" stroke:none;fill-rule:nonzero;fill:rgb(16.862745%,49.803922%,100%);fill-opacity:1;" d="M 33.808594 37.738281 L 37.269531 37.738281 C 38.605469 37.738281 39.691406 36.542969 39.691406 35.074219 C 39.691406 33.601562 38.605469 32.40625 37.269531 32.40625 L 33.808594 32.40625 C 32.472656 32.40625 31.386719 33.601562 31.386719 35.074219 C 31.386719 36.542969 32.472656 37.738281 33.808594 37.738281 Z M 38.308594 35.074219 C 38.308594 35.703125 37.84375 36.214844 37.269531 36.214844 L 36.230469 36.214844 L 36.230469 33.929688 L 37.269531 33.929688 C 37.84375 33.929688 38.308594 34.441406 38.308594 35.074219 Z M 33.808594 33.929688 L 34.847656 33.929688 L 34.847656 36.214844 L 33.808594 36.214844 C 33.234375 36.214844 32.769531 35.703125 32.769531 35.074219 C 32.769531 34.441406 33.234375 33.929688 33.808594 33.929688 Z M 33.808594 33.929688 "/>
</g>
</svg>
